# xmcd
#
# Track frame offsets:
#	183
#	84630
#	139203
#	207703
#	252960
#	284010
#
# Disc length: 4339 seconds
#
# Revision: 16
# Processed by: cddbd v1.5.2PL0 Copyright (c) Steve Scherf et al.
# Submitted via: audiograbber 1.83.01
#
DISCID=6110f106
DTITLE=Sergey Rachmaninov - Klavierkonzert Nr. 1 und 2 [CD 2)
DYEAR=1972
DGENRE=Klassik
TTITLE0=1. Klavierkonzert Nr. 3 D-moll, Op. 30 - I. Allegro ma non tanto
TTITLE1=2. Klavierkonzert Nr. 3 D-moll, Op. 30 - II. Intermezzo: Adagio
TTITLE2=3. Klavierkonzert Nr. 3 D-moll, Op. 30 - III. Finale (Alla breve)
TTITLE3=4. Klavierkonzert Nr. 4 G-moll, Op. 40 - I. Allegro vivace (Alla breve)
TTITLE4=5. Klavierkonzert Nr. 4 G-moll, Op. 40 - II. Largo
TTITLE5=6. Klavierkonzert Nr. 4 G-moll, Op. 40 - III. Allegro vivace
EXTD=
EXTT0=
EXTT1=
EXTT2=
EXTT3=
EXTT4=
EXTT5=
PLAYORDER=
